<svg width="18" height="17" viewBox="0 0 18 17" fill="none" xmlns="http://www.w3.org/2000/svg">
<path d="M5.38 4C5.307 3.91535 5.25142 3.81713 5.21643 3.71097C5.18144 3.60481 5.16774 3.4928 5.1761 3.38133C5.18445 3.26987 5.21472 3.16115 5.26515 3.06139C5.31558 2.96164 5.38519 2.87281 5.47 2.8L8.47 0.22C8.50103 0.196382 8.53456 0.176261 8.57 0.16C8.61662 0.127422 8.66698 0.100563 8.72 0.0799999H8.87L9 0H9.16H9.31C9.36302 0.0205629 9.41338 0.047422 9.46 0.0799999C9.49544 0.0962606 9.52898 0.116382 9.56 0.14L12.56 2.72C12.6548 2.78943 12.7342 2.87777 12.7931 2.97943C12.852 3.08109 12.8893 3.19386 12.9024 3.31063C12.9156 3.4274 12.9044 3.54563 12.8695 3.65785C12.8346 3.77007 12.7769 3.87385 12.6999 3.96263C12.6229 4.0514 12.5284 4.12325 12.4222 4.17364C12.3161 4.22402 12.2006 4.25185 12.0832 4.25536C11.9657 4.25888 11.8488 4.238 11.7398 4.19404C11.6308 4.15009 11.5322 4.08402 11.45 4L10 2.84V10.84C10 11.1052 9.89464 11.3596 9.70711 11.5471C9.51957 11.7346 9.26522 11.84 9 11.84C8.73478 11.84 8.48043 11.7346 8.29289 11.5471C8.10536 11.3596 8 11.1052 8 10.84V2.84L6.58 4.07C6.41158 4.21984 6.19055 4.29664 5.9655 4.28352C5.74046 4.27039 5.52985 4.16841 5.38 4ZM17 10C16.7348 10 16.4804 10.1054 16.2929 10.2929C16.1054 10.4804 16 10.7348 16 11V14C16 14.2652 15.8946 14.5196 15.7071 14.7071C15.5196 14.8946 15.2652 15 15 15H3C2.73478 15 2.48043 14.8946 2.29289 14.7071C2.10536 14.5196 2 14.2652 2 14V11C2 10.7348 1.89464 10.4804 1.70711 10.2929C1.51957 10.1054 1.26522 10 1 10C0.734784 10 0.48043 10.1054 0.292893 10.2929C0.105357 10.4804 0 10.7348 0 11V14C0 14.7956 0.316071 15.5587 0.87868 16.1213C1.44129 16.6839 2.20435 17 3 17H15C15.7956 17 16.5587 16.6839 17.1213 16.1213C17.6839 15.5587 18 14.7956 18 14V11C18 10.7348 17.8946 10.4804 17.7071 10.2929C17.5196 10.1054 17.2652 10 17 10Z" fill="#222221"/>
</svg>
